<svg height="200" viewBox="0 0 200 200" width="200" xmlns="http://www.w3.org/2000/svg" xmlns:xlink="http://www.w3.org/1999/xlink"><mask id="a"><rect fill="#fff" height="100%" width="100%"/><rect fill="#fff" height="51" rx="25.5" stroke="#000" stroke-linejoin="round" width="133.695" x="33.5" y="74.5"/><path d="m65.584 102.512c0 .832.128 1.611.384 2.336.2773.725.6613 1.355 1.152 1.888s1.0773.96 1.76 1.28c.704.299 1.4933.448 2.368.448.8533 0 1.6427-.149 2.368-.448.7467-.32 1.3867-.747 1.92-1.28s.9493-1.163 1.248-1.888.448-1.504.448-2.336-.1493-1.611-.448-2.336c-.2987-.7253-.7147-1.3547-1.248-1.888s-1.1733-.9493-1.92-1.248c-.7253-.32-1.5147-.48-2.368-.48-.8747 0-1.664.16-2.368.48-.6827.2987-1.2693.7147-1.76 1.248s-.8747 1.1627-1.152 1.888c-.256.725-.384 1.504-.384 2.336zm13.664 7.488h-2.112v-2.496h-.064c-.3413.512-.7467.949-1.216 1.312s-.96.661-1.472.896-1.0453.405-1.6.512c-.5333.107-1.0453.16-1.536.16-1.1733 0-2.2507-.192-3.232-.576-.96-.405-1.792-.96-2.496-1.664s-1.2587-1.536-1.664-2.496c-.384-.96-.576-2.005-.576-3.136s.192-2.176.576-3.136c.4053-.96.96-1.792 1.664-2.496s1.536-1.248 2.496-1.632c.9813-.4053 2.0587-.608 3.232-.608.4907 0 1.0027.0533 1.536.16.5547.1067 1.088.2773 1.6.512s1.0027.5333 1.472.896.8747.8 1.216 1.312h.064v-11.712h2.112zm16.2665-8.64c0-1.4293-.4267-2.5813-1.28-3.456-.8533-.896-2.048-1.344-3.584-1.344-.6827 0-1.344.1387-1.984.416-.64.256-1.2053.608-1.696 1.056-.4693.448-.8533.96-1.152 1.536-.2773.576-.416 1.173-.416 1.792zm-10.176 1.728c.064.747.2453 1.451.544 2.112s.6933 1.237 1.184 1.728c.4907.469 1.056.843 1.696 1.12s1.3333.416 2.08.416c1.1307 0 2.1013-.256 2.912-.768.832-.533 1.4613-1.141 1.888-1.824l1.632 1.344c-.896 1.131-1.888 1.941-2.976 2.432-1.0667.491-2.2187.736-3.456.736-1.1093 0-2.144-.192-3.104-.576-.9387-.405-1.7493-.96-2.432-1.664s-1.2267-1.536-1.632-2.496c-.384-.96-.576-2.005-.576-3.136s.192-2.176.576-3.136.9173-1.792 1.6-2.496 1.4827-1.248 2.4-1.632c.9173-.4053 1.9093-.608 2.976-.608 1.1307 0 2.144.2027 3.04.608s1.6427.9493 2.24 1.632c.6187.6613 1.088 1.4507 1.408 2.368.32.896.48 1.856.48 2.88v.96zm27.9575-1.728c0-1.4293-.427-2.5813-1.28-3.456-.854-.896-2.048-1.344-3.584-1.344-.683 0-1.344.1387-1.984.416-.64.256-1.206.608-1.696 1.056-.47.448-.854.96-1.152 1.536-.278.576-.416 1.173-.416 1.792zm-10.176 1.728c.064.747.245 1.451.544 2.112.298.661.693 1.237 1.184 1.728.49.469 1.056.843 1.696 1.12s1.333.416 2.08.416c1.13 0 2.101-.256 2.912-.768.832-.533 1.461-1.141 1.888-1.824l1.632 1.344c-.896 1.131-1.888 1.941-2.976 2.432-1.067.491-2.219.736-3.456.736-1.11 0-2.144-.192-3.104-.576-.939-.405-1.75-.96-2.432-1.664-.683-.704-1.227-1.536-1.632-2.496-.384-.96-.576-2.005-.576-3.136s.192-2.176.576-3.136.917-1.792 1.6-2.496c.682-.704 1.482-1.248 2.4-1.632.917-.4053 1.909-.608 2.976-.608 1.13 0 2.144.2027 3.04.608s1.642.9493 2.24 1.632c.618.6613 1.088 1.4507 1.408 2.368.32.896.48 1.856.48 2.88v.96zm29.973-.576c0-.832-.139-1.611-.416-2.336-.256-.7253-.629-1.3547-1.12-1.888s-1.088-.9493-1.792-1.248c-.683-.32-1.461-.48-2.336-.48s-1.675.16-2.4.48c-.725.2987-1.355.7147-1.888 1.248s-.949 1.1627-1.248 1.888c-.299.725-.448 1.504-.448 2.336s.149 1.611.448 2.336.715 1.355 1.248 1.888 1.163.96 1.888 1.28c.725.299 1.525.448 2.4.448s1.653-.149 2.336-.448c.704-.32 1.301-.747 1.792-1.28s.864-1.163 1.12-1.888c.277-.725.416-1.504.416-2.336zm-13.664-7.488h2.112v2.496h.064c.341-.512.747-.9493 1.216-1.312s.96-.6613 1.472-.896 1.035-.4053 1.568-.512c.555-.1067 1.077-.16 1.568-.16 1.173 0 2.24.2027 3.2.608.981.384 1.824.928 2.528 1.632s1.248 1.536 1.632 2.496c.405.96.608 2.005.608 3.136s-.203 2.176-.608 3.136c-.384.96-.928 1.792-1.632 2.496s-1.547 1.259-2.528 1.664c-.96.384-2.027.576-3.2.576-.491 0-1.013-.053-1.568-.16-.533-.107-1.056-.277-1.568-.512s-1.003-.533-1.472-.896-.875-.8-1.216-1.312h-.064v11.712h-2.112z"/></mask><rect height="100%" mask="url(#a)" width="100%"/></svg>